<svg clip-rule="evenodd" fill-rule="evenodd" stroke-linejoin="round" stroke-miterlimit="2" version="1.1" viewBox="0 0 300 72" xml:space="preserve" xmlns="http://www.w3.org/2000/svg">
    <g transform="matrix(1 0 0 .93266 -.52034 -2.3322)">
        <rect x=".52" y="2.501" width="299.16" height="76.754" fill="none"/>
        <g transform="matrix(1 0 0 1.0722 .52034 -10.189)" fill="#191919" fill-rule="nonzero">
            
                <path d="m24.168 73.433c0.174 0 0.26-0.061 0.26-0.179v-4.541c0-0.118-0.086-0.18-0.26-0.18v-0.182h1.66v0.182c-0.172 0-0.261 0.062-0.261 0.18v4.541c0 0.118 0.088 0.179 0.261 0.179v0.183h-1.66v-0.183z"/>
                <path d="m36.029 68.354c0.319 0 0.609 0.025 0.869 0.085 0.261 0.06 0.484 0.146 0.67 0.271 0.188 0.125 0.331 0.285 0.431 0.479 0.1 0.196 0.15 0.438 0.15 0.726 0 0.438-0.13 0.777-0.39 1.008-0.26 0.233-0.61 0.391-1.049 0.471l1.33 1.898c0.045 0.065 0.101 0.106 0.165 0.117 0.063 0.017 0.122 0.022 0.176 0.022v0.182h-1.869v-0.183c0.06 0 0.111-0.011 0.155-0.028 0.044-0.019 0.065-0.046 0.065-0.077 0-0.032-0.014-0.07-0.04-0.112-0.027-0.044-0.067-0.104-0.121-0.176l-1.099-1.562h-1.43v1.781c0 0.062 0.021 0.104 0.065 0.134 0.044 0.027 0.121 0.044 0.236 0.044v0.183h-1.73v-0.183c0.193 0 0.29-0.061 0.29-0.179v-4.541c0-0.118-0.099-0.18-0.29-0.18v-0.182l3.416 2e-3zm-0.261 2.339c0.241 0 0.441-0.019 0.6-0.056 0.16-0.037 0.285-0.088 0.379-0.155 0.094-0.066 0.16-0.146 0.201-0.236 0.04-0.088 0.061-0.188 0.061-0.293 0-0.106-0.021-0.203-0.061-0.291-0.04-0.091-0.107-0.171-0.201-0.237-0.095-0.067-0.219-0.118-0.379-0.157-0.161-0.037-0.36-0.056-0.6-0.056h-1.728v1.479l1.728 2e-3z"/>
                <path d="m44.959 73.433c0.173 0 0.26-0.061 0.26-0.179v-4.541c0-0.118-0.087-0.18-0.26-0.18v-0.182h1.658v0.182c-0.172 0-0.259 0.062-0.259 0.18v4.541c0 0.118 0.086 0.179 0.259 0.179v0.183h-1.658v-0.183z"/>
                <path d="m53.854 71.963 0.1 0.054c0 0.06 0.014 0.11 0.041 0.155 0.046 0.078 0.138 0.159 0.275 0.236 0.136 0.072 0.293 0.146 0.469 0.201 0.177 0.062 0.362 0.111 0.554 0.146 0.195 0.036 0.367 0.055 0.521 0.055 0.111 0 0.26-6e-3 0.44-0.024s0.356-0.051 0.528-0.104c0.175-0.054 0.323-0.126 0.449-0.218 0.126-0.097 0.19-0.217 0.19-0.372 0-0.156-0.059-0.269-0.175-0.339-0.116-0.074-0.271-0.125-0.461-0.161-0.188-0.029-0.407-0.052-0.649-0.063-0.243-0.012-0.492-0.025-0.745-0.045-0.253-0.021-0.502-0.055-0.745-0.102-0.243-0.048-0.46-0.125-0.651-0.238-0.188-0.107-0.343-0.257-0.459-0.449-0.117-0.188-0.175-0.435-0.175-0.742 0-0.204 0.049-0.41 0.145-0.607 0.096-0.2 0.245-0.378 0.445-0.53 0.198-0.151 0.453-0.279 0.759-0.376 0.307-0.1 0.667-0.146 1.079-0.146 0.354 0 0.66 0.026 0.92 0.079s0.486 0.11 0.675 0.17c0.19 0.062 0.35 0.118 0.481 0.169 0.13 0.056 0.237 0.08 0.324 0.08 0.095 0 0.16-0.022 0.201-0.064l0.119 0.082-0.69 1.249-0.1-0.04c-0.014-0.092-0.041-0.171-0.081-0.23-0.054-0.077-0.141-0.156-0.264-0.235-0.125-0.079-0.269-0.146-0.436-0.205-0.166-0.062-0.346-0.107-0.539-0.146-0.195-0.033-0.387-0.054-0.58-0.054-0.146 0-0.298 0.01-0.455 0.031-0.156 0.025-0.298 0.062-0.423 0.105-0.126 0.05-0.231 0.11-0.313 0.186-0.085 0.075-0.126 0.172-0.126 0.287 0 0.16 0.06 0.284 0.175 0.359 0.117 0.082 0.269 0.141 0.46 0.182 0.189 0.038 0.407 0.067 0.65 0.079 0.242 0.014 0.491 0.026 0.745 0.051 0.254 0.021 0.501 0.055 0.745 0.105 0.243 0.049 0.46 0.131 0.65 0.241 0.19 0.111 0.343 0.254 0.459 0.442 0.116 0.185 0.175 0.429 0.175 0.73 0 0.345-0.09 0.632-0.274 0.851-0.182 0.222-0.412 0.391-0.685 0.519-0.272 0.127-0.568 0.212-0.885 0.254-0.317 0.045-0.611 0.065-0.885 0.065-0.381 0-0.699-0.021-0.956-0.065-0.256-0.042-0.469-0.097-0.639-0.157-0.171-0.065-0.306-0.122-0.405-0.17-0.101-0.05-0.186-0.074-0.26-0.074-0.046 0-0.089 0.024-0.131 0.077l-0.139-0.077 0.552-1.207z"/>
                <path d="m69.899 68.713c0-0.118-0.074-0.18-0.219-0.18v-0.182h1.54v0.182c-0.047 0-0.09 0.017-0.126 0.046-0.037 0.025-0.054 0.073-0.054 0.133v4.541c0 0.062 0.017 0.104 0.054 0.134 0.037 0.026 0.079 0.044 0.126 0.044v0.182h-1.54v-0.18c0.145 0 0.219-0.061 0.219-0.179v-1.884h-3.218v1.884c0 0.061 0.019 0.104 0.056 0.133 0.036 0.029 0.077 0.046 0.125 0.046v0.182h-1.509v-0.182c0.127 0 0.188-0.061 0.188-0.179v-4.541c0-0.118-0.062-0.18-0.188-0.18v-0.182h1.509v0.182c-0.046 0-0.088 0.017-0.125 0.046-0.037 0.025-0.056 0.073-0.056 0.133v1.698h3.218v-1.697z"/>
            
            
                <path d="m100.84 68.354c0.306 0 0.603 0.023 0.889 0.077 0.287 0.049 0.54 0.128 0.761 0.238 0.221 0.109 0.397 0.254 0.53 0.431 0.133 0.174 0.2 0.395 0.2 0.653 0 0.312-0.096 0.555-0.29 0.724-0.193 0.17-0.424 0.302-0.69 0.395v0.021c0.313 0.092 0.579 0.243 0.795 0.444 0.217 0.201 0.325 0.494 0.325 0.871 0 0.201-0.043 0.385-0.13 0.558-0.086 0.169-0.214 0.317-0.385 0.444-0.169 0.127-0.378 0.224-0.625 0.291-0.247 0.068-0.526 0.108-0.839 0.108h-3.669v-0.179c0.187 0 0.281-0.061 0.281-0.179v-4.541c0-0.118-0.092-0.18-0.281-0.18v-0.18l3.128 4e-3zm0.199 2.058c0.3 0 0.549-0.035 0.746-0.115 0.196-0.072 0.294-0.235 0.294-0.48 0-0.244-0.099-0.41-0.294-0.484-0.197-0.075-0.445-0.115-0.746-0.115h-1.908v1.199l1.908-5e-3zm0 2.283c0.42 0 0.722-0.064 0.905-0.196s0.274-0.3 0.274-0.514c0-0.215-0.09-0.384-0.274-0.514-0.182-0.129-0.486-0.198-0.905-0.198h-1.908v1.421l1.908 1e-3z"/>
                <path d="m109.42 73.433c0.087-0.015 0.156-0.059 0.206-0.13 0.049-0.072 0.098-0.156 0.146-0.248l1.849-3.889c0.046-0.086 0.089-0.168 0.125-0.24 0.036-0.071 0.055-0.136 0.055-0.191 0-0.065-0.022-0.11-0.069-0.141-0.046-0.024-0.096-0.046-0.151-0.062v-0.181h1.691v0.181c-0.046 0.016-0.094 0.029-0.14 0.058-0.046 0.023-0.07 0.071-0.07 0.145 0 0.057 0.011 0.108 0.035 0.157 0.024 0.057 0.059 0.126 0.105 0.209l2.079 4.069c0.036 0.073 0.08 0.129 0.136 0.159 0.058 0.032 0.121 0.066 0.195 0.103v0.181h-1.759v-0.182c0.026 0 0.06-0.011 0.101-0.028 0.04-0.021 0.06-0.05 0.06-0.088 0-0.066-0.026-0.155-0.081-0.262l-0.378-0.738h-2.44l-0.359 0.711c-0.066 0.142-0.101 0.242-0.101 0.298 0 0.072 0.064 0.11 0.191 0.11v0.183h-1.423l-3e-3 -0.184zm3.769-1.859-0.839-1.857-0.938 1.857h1.777z"/>
                <path d="m126.98 73.803c0-0.1-0.031-0.157-0.095-0.17-0.063-0.016-0.144-0.021-0.243-0.021h-4.759v-0.181c0.2 0 0.299-0.061 0.299-0.179v-4.541c0-0.118-0.101-0.18-0.299-0.18v-0.181h1.72v0.182c-0.186 0-0.281 0.062-0.281 0.18v3.981h3.318c0.102 0 0.182-0.021 0.245-0.068 0.065-0.047 0.095-0.112 0.095-0.191h0.18v1.369h-0.18z"/>
                <path d="m138.5 73.803c0-0.1-0.031-0.157-0.094-0.17-0.064-0.016-0.147-0.021-0.246-0.021h-4.758v-0.181c0.201 0 0.299-0.061 0.299-0.179v-4.541c0-0.118-0.101-0.18-0.299-0.18v-0.181h1.72v0.182c-0.188 0-0.282 0.062-0.282 0.18v3.981h3.32c0.101 0 0.182-0.021 0.246-0.068 0.063-0.047 0.094-0.112 0.094-0.191h0.18v1.369h-0.18z"/>
                <path d="m144.68 73.433c0.087-0.015 0.156-0.059 0.204-0.13 0.052-0.072 0.1-0.156 0.146-0.248l1.85-3.889c0.048-0.086 0.09-0.168 0.127-0.24 0.035-0.071 0.052-0.136 0.052-0.191 0-0.065-0.022-0.11-0.069-0.141-0.046-0.024-0.096-0.046-0.15-0.062v-0.181h1.688v0.181c-0.046 0.016-0.092 0.029-0.138 0.058-0.048 0.023-0.071 0.071-0.071 0.145 0 0.057 0.013 0.108 0.036 0.157 0.023 0.057 0.058 0.126 0.105 0.209l2.079 4.069c0.029 0.073 0.079 0.129 0.134 0.159 0.062 0.032 0.123 0.066 0.197 0.103v0.181h-1.759v-0.182c0.025 0 0.061-0.011 0.101-0.028 0.04-0.021 0.06-0.05 0.06-0.088 0-0.066-0.026-0.155-0.081-0.262l-0.378-0.738h-2.441l-0.359 0.711c-0.067 0.142-0.098 0.242-0.098 0.298 0 0.072 0.062 0.11 0.189 0.11v0.183h-1.422l-2e-3 -0.184zm3.769-1.859-0.839-1.857-0.939 1.857h1.778z"/>
                <path d="m160.52 68.354c0.365 0 0.709 0.057 1.023 0.161 0.317 0.106 0.592 0.267 0.827 0.482 0.231 0.216 0.414 0.489 0.55 0.82 0.131 0.332 0.194 0.72 0.194 1.164 0 0.447-0.063 0.836-0.194 1.167-0.136 0.331-0.318 0.602-0.55 0.82-0.237 0.217-0.51 0.379-0.827 0.485-0.314 0.106-0.658 0.158-1.023 0.158h-3.318v-0.182c0.152 0 0.229-0.061 0.229-0.179v-4.541c0-0.118-0.074-0.18-0.229-0.18v-0.179l3.318 4e-3zm-0.4 4.398c0.312 0 0.588-0.024 0.822-0.078 0.232-0.052 0.424-0.149 0.578-0.285 0.156-0.137 0.27-0.318 0.341-0.546 0.079-0.228 0.116-0.512 0.116-0.862 0-0.345-0.037-0.633-0.116-0.862-0.072-0.229-0.188-0.407-0.341-0.545-0.154-0.136-0.346-0.232-0.578-0.287-0.236-0.053-0.51-0.076-0.822-0.076h-1.545v3.538h1.545v3e-3z"/>
                <path d="m170.16 71.963 0.101 0.054c0 0.06 0.016 0.11 0.043 0.155 0.045 0.078 0.135 0.159 0.272 0.236 0.135 0.072 0.291 0.146 0.469 0.201 0.175 0.062 0.361 0.111 0.558 0.146 0.192 0.036 0.367 0.055 0.52 0.055 0.111 0 0.259-6e-3 0.439-0.024 0.179-0.018 0.354-0.051 0.527-0.104 0.174-0.054 0.326-0.126 0.451-0.218 0.125-0.097 0.189-0.217 0.189-0.372 0-0.156-0.059-0.269-0.18-0.339-0.111-0.074-0.268-0.125-0.455-0.161-0.188-0.029-0.408-0.052-0.65-0.063-0.244-0.012-0.49-0.025-0.742-0.045-0.252-0.021-0.502-0.055-0.743-0.102-0.246-0.048-0.463-0.125-0.647-0.238-0.191-0.107-0.346-0.257-0.459-0.449-0.117-0.188-0.181-0.435-0.181-0.742 0-0.204 0.05-0.41 0.144-0.607 0.101-0.2 0.246-0.378 0.445-0.53 0.201-0.15 0.456-0.279 0.762-0.376 0.306-0.1 0.664-0.146 1.08-0.146 0.354 0 0.658 0.026 0.92 0.079 0.26 0.053 0.484 0.11 0.675 0.17 0.188 0.062 0.348 0.118 0.479 0.169 0.129 0.056 0.236 0.08 0.325 0.08 0.093 0 0.159-0.022 0.201-0.064l0.119 0.082-0.688 1.249-0.104-0.04c-0.016-0.092-0.04-0.171-0.077-0.23-0.058-0.077-0.146-0.156-0.267-0.235-0.123-0.079-0.268-0.146-0.435-0.205-0.165-0.062-0.348-0.107-0.54-0.146-0.197-0.033-0.388-0.054-0.581-0.054-0.146 0-0.296 0.01-0.452 0.031-0.158 0.024-0.3 0.062-0.428 0.105-0.128 0.05-0.232 0.11-0.314 0.186-0.084 0.075-0.127 0.172-0.127 0.287 0 0.16 0.062 0.284 0.18 0.359 0.113 0.082 0.268 0.141 0.46 0.182 0.187 0.038 0.405 0.067 0.647 0.079 0.243 0.014 0.49 0.026 0.746 0.051 0.25 0.021 0.5 0.055 0.743 0.105 0.242 0.049 0.46 0.131 0.646 0.241 0.193 0.111 0.344 0.254 0.465 0.442 0.113 0.185 0.175 0.429 0.175 0.73 0 0.345-0.092 0.632-0.274 0.851-0.185 0.222-0.416 0.391-0.688 0.519-0.273 0.127-0.57 0.212-0.885 0.254-0.319 0.045-0.61 0.065-0.885 0.065-0.377 0-0.699-0.021-0.957-0.065-0.256-0.042-0.47-0.097-0.641-0.157-0.171-0.065-0.305-0.122-0.404-0.17-0.102-0.05-0.188-0.074-0.261-0.074-0.046 0-0.09 0.024-0.128 0.077l-0.145-0.077 0.557-1.207z"/>
            
            
                <path d="m206.33 73.643c-0.245 0-0.463-0.021-0.646-0.055-0.182-0.035-0.34-0.089-0.479-0.155-0.134-0.066-0.252-0.142-0.347-0.224-0.1-0.084-0.188-0.17-0.271-0.254-0.154 0.13-0.303 0.244-0.439 0.333-0.133 0.094-0.278 0.165-0.42 0.22-0.146 0.062-0.297 0.097-0.459 0.111-0.164 0.018-0.354 0.024-0.565 0.024-0.238 0-0.487-0.024-0.735-0.079-0.249-0.052-0.477-0.141-0.68-0.269-0.202-0.127-0.374-0.291-0.504-0.49-0.135-0.202-0.201-0.44-0.201-0.719 0-0.222 0.032-0.415 0.104-0.575 0.067-0.165 0.166-0.308 0.285-0.426s0.264-0.219 0.432-0.3c0.166-0.076 0.346-0.146 0.541-0.2v-0.022c-0.209-0.064-0.383-0.184-0.537-0.354-0.148-0.166-0.225-0.369-0.225-0.595 0-0.235 0.055-0.434 0.164-0.598 0.112-0.163 0.248-0.298 0.42-0.411 0.172-0.11 0.365-0.19 0.582-0.238 0.217-0.053 0.428-0.077 0.635-0.077 0.213 0 0.426 0.024 0.643 0.077 0.214 0.048 0.402 0.128 0.574 0.238 0.171 0.111 0.312 0.245 0.424 0.411 0.109 0.161 0.162 0.361 0.162 0.598 0 0.231-0.066 0.434-0.198 0.603-0.129 0.17-0.271 0.283-0.424 0.334 0.085 0.062 0.155 0.13 0.207 0.215 0.054 0.083 0.101 0.166 0.142 0.25 0.039 0.079 0.073 0.161 0.111 0.238 0.029 0.079 0.072 0.139 0.118 0.187 0.101-0.183 0.215-0.347 0.349-0.501 0.133-0.154 0.268-0.29 0.398-0.405 0.133-0.114 0.255-0.206 0.367-0.28 0.11-0.069 0.189-0.111 0.242-0.124 0.033-0.017 0.065-0.026 0.092-0.046 0.025-0.019 0.041-0.037 0.041-0.066h0.098v1.539h-0.098c-0.02-0.038-0.037-0.086-0.067-0.138-0.026-0.056-0.081-0.08-0.156-0.08-0.077 0-0.155 0.03-0.229 0.102-0.072 0.067-0.139 0.146-0.2 0.246-0.062 0.098-0.111 0.196-0.157 0.291-0.046 0.102-0.079 0.186-0.104 0.25 0.096 0.118 0.205 0.229 0.336 0.325 0.129 0.096 0.248 0.15 0.363 0.156 0.094 0 0.151-0.027 0.176-0.089 0.021-0.062 0.035-0.126 0.035-0.201h0.099l1e-3 1.223zm-4.645-1.7c0 0.166 0.037 0.311 0.109 0.433 0.073 0.118 0.169 0.214 0.288 0.288 0.118 0.071 0.253 0.128 0.397 0.16 0.14 0.03 0.283 0.049 0.424 0.049 0.133 0 0.26-0.021 0.385-0.065 0.121-0.044 0.236-0.101 0.334-0.164 0.102-0.066 0.182-0.144 0.245-0.226 0.063-0.084 0.104-0.169 0.114-0.256-0.102-0.141-0.174-0.276-0.221-0.414-0.046-0.138-0.101-0.262-0.158-0.372-0.062-0.111-0.142-0.199-0.24-0.265-0.101-0.065-0.254-0.103-0.463-0.103-0.141 0-0.282 0.019-0.422 0.054-0.146 0.03-0.281 0.084-0.397 0.157-0.116 0.072-0.216 0.166-0.289 0.289-0.069 0.119-0.106 0.262-0.106 0.435zm1.298-2.908c-0.231 0-0.431 0.055-0.596 0.164-0.162 0.109-0.246 0.282-0.246 0.512 0 0.229 0.082 0.404 0.246 0.515 0.162 0.11 0.363 0.162 0.596 0.162 0.234 0 0.434-0.055 0.595-0.162 0.163-0.111 0.246-0.285 0.246-0.515s-0.083-0.403-0.246-0.512c-0.162-0.111-0.36-0.164-0.595-0.164z"/>
                <path d="m219.94 73.254c0 0.118 0.074 0.179 0.222 0.179v0.183h-1.538v-0.183c0.044 0 0.085-0.017 0.125-0.044 0.033-0.029 0.053-0.074 0.053-0.134v-3.982h-1.646c-0.061 0-0.118 0.02-0.176 0.054-0.057 0.028-0.084 0.095-0.084 0.188h-0.182v-1.399h0.182c0 0.094 0.027 0.156 0.084 0.191 0.058 0.029 0.115 0.048 0.176 0.048h4.438c0.062 0 0.118-0.019 0.178-0.048 0.055-0.032 0.08-0.099 0.08-0.191h0.183v1.399h-0.183c0-0.094-0.025-0.157-0.08-0.188-0.06-0.034-0.114-0.054-0.178-0.054h-1.65v3.981h-4e-3z"/>
                <path d="m230.04 68.535c-0.146 0-0.221 0.061-0.221 0.179v3.002c0 0.422 0.135 0.708 0.406 0.867 0.268 0.154 0.664 0.232 1.182 0.232 0.52 0 0.912-0.073 1.185-0.232 0.271-0.157 0.403-0.445 0.403-0.867v-3.003c0-0.118-0.098-0.18-0.297-0.18v-0.182h1.599v0.182c-0.159 0-0.239 0.062-0.239 0.18v2.95c0 0.391-0.058 0.719-0.172 0.975-0.113 0.258-0.281 0.461-0.509 0.615-0.229 0.152-0.511 0.253-0.847 0.308-0.334 0.056-0.727 0.079-1.164 0.079-0.438 0-0.827-0.023-1.168-0.079-0.334-0.055-0.614-0.155-0.844-0.308-0.229-0.157-0.395-0.357-0.514-0.615-0.111-0.256-0.168-0.584-0.168-0.975v-2.95c0-0.118-0.092-0.18-0.281-0.18v-0.182h1.639v0.184h0.01z"/>
                <path d="m241.03 73.433c0.128 0 0.19-0.061 0.19-0.179v-4.541c0-0.118-0.064-0.18-0.19-0.18v-0.182h1.71v0.182c-0.053 0-0.074 0.032-0.074 0.102 0 0.053 0.064 0.146 0.201 0.28l2.867 2.978v-3.18c0-0.118-0.086-0.18-0.258-0.18v-0.182h1.508v0.182c-0.127 0-0.192 0.062-0.192 0.18v4.541c0 0.118 0.065 0.179 0.192 0.179v0.183h-1.619v-0.183c0.082 0 0.127-0.028 0.127-0.089 0-0.046-0.055-0.125-0.158-0.231l-3.052-3.181v3.322c0 0.118 0.075 0.179 0.231 0.179v0.183h-1.481l-2e-3 -0.183z"/>
                <path d="m258.85 69.435c0-0.073-0.027-0.13-0.086-0.165-0.057-0.035-0.152-0.055-0.293-0.055h-3.238v1.238h1.957c0.135 0 0.239-0.021 0.311-0.058 0.075-0.035 0.111-0.131 0.111-0.285h0.182v1.561h-0.182c0-0.156-0.035-0.251-0.111-0.295-0.07-0.043-0.176-0.066-0.311-0.066h-1.957v1.382h3.34c0.1 0 0.182-0.022 0.244-0.069 0.063-0.048 0.095-0.111 0.095-0.191h0.18v1.368h-0.18c0-0.099-0.03-0.156-0.095-0.169-0.064-0.016-0.146-0.021-0.244-0.021h-4.659v-0.182c0.046 0 0.088-0.017 0.124-0.044 0.037-0.028 0.058-0.073 0.058-0.134v-4.541c0-0.062-0.022-0.106-0.058-0.134-0.035-0.028-0.077-0.044-0.124-0.044v-0.181h4.562c0.143 0 0.237-0.022 0.293-0.065 0.059-0.043 0.082-0.103 0.082-0.179h0.186v1.321l-0.187 8e-3z"/>
                <path d="m266.17 71.963 0.101 0.054c0 0.06 0.015 0.11 0.039 0.155 0.045 0.078 0.139 0.159 0.276 0.236 0.133 0.072 0.289 0.146 0.469 0.201 0.179 0.062 0.364 0.111 0.558 0.146 0.191 0.036 0.363 0.055 0.517 0.055 0.116 0 0.261-6e-3 0.442-0.024 0.18-0.018 0.354-0.051 0.531-0.104 0.172-0.054 0.321-0.126 0.448-0.218 0.127-0.097 0.187-0.217 0.187-0.372 0-0.156-0.058-0.269-0.172-0.339-0.117-0.073-0.271-0.125-0.461-0.161-0.192-0.029-0.406-0.052-0.649-0.063s-0.493-0.025-0.745-0.045c-0.253-0.021-0.502-0.055-0.744-0.102-0.244-0.048-0.459-0.125-0.648-0.238-0.194-0.107-0.34-0.257-0.459-0.449-0.117-0.188-0.18-0.435-0.18-0.742 0-0.204 0.051-0.41 0.148-0.607 0.094-0.2 0.244-0.378 0.445-0.53 0.197-0.151 0.451-0.279 0.756-0.376 0.31-0.1 0.668-0.146 1.082-0.146 0.352 0 0.658 0.026 0.918 0.079 0.258 0.053 0.486 0.11 0.675 0.17 0.19 0.062 0.348 0.118 0.476 0.169 0.133 0.056 0.242 0.08 0.329 0.08 0.093 0 0.16-0.022 0.201-0.064l0.119 0.082-0.691 1.249-0.101-0.04c-0.014-0.092-0.035-0.171-0.077-0.23-0.052-0.077-0.14-0.156-0.265-0.235-0.123-0.079-0.27-0.146-0.437-0.205-0.165-0.062-0.347-0.107-0.54-0.146-0.195-0.033-0.388-0.054-0.581-0.054-0.147 0-0.296 0.01-0.454 0.031-0.156 0.024-0.297 0.062-0.425 0.105-0.128 0.05-0.233 0.11-0.315 0.186-0.08 0.075-0.123 0.172-0.123 0.287 0 0.16 0.057 0.284 0.176 0.359 0.115 0.082 0.271 0.141 0.458 0.182 0.192 0.038 0.405 0.067 0.649 0.079 0.242 0.014 0.492 0.026 0.748 0.051 0.248 0.021 0.5 0.055 0.742 0.105 0.244 0.049 0.458 0.131 0.646 0.241 0.193 0.111 0.344 0.254 0.463 0.442 0.115 0.185 0.176 0.429 0.176 0.73 0 0.345-0.095 0.632-0.277 0.851-0.185 0.222-0.412 0.391-0.687 0.519-0.274 0.127-0.565 0.212-0.884 0.254-0.315 0.045-0.61 0.065-0.887 0.065-0.379 0-0.693-0.021-0.955-0.065-0.256-0.042-0.469-0.097-0.643-0.157-0.169-0.065-0.303-0.122-0.404-0.17-0.101-0.05-0.188-0.074-0.26-0.074-0.046 0-0.088 0.024-0.13 0.077l-0.14-0.077 0.559-1.207z"/>
            
        </g>
        <g transform="matrix(1 0 0 1.0722 .52034 -10.189)">
            <g fill="#191919">
                <g fill-rule="nonzero" opacity=".15">
                    <path d="m18.417 33.646c-1.269-0.468-2.184-0.707-2.746-0.707-1.003 0-1.861 0.391-2.575 1.175-0.713 0.78-1.07 1.727-1.07 2.835 0 1.271 0.577 2.388 1.73 3.355 0.043 0.035 0.074 0.065 0.112 0.101-0.641-0.777-0.963-1.636-0.963-2.583 0-1.104 0.356-2.05 1.07-2.832s1.571-1.173 2.573-1.173c0.562 0 1.478 0.236 2.746 0.705s2.312 0.707 3.132 0.707c0.512 0 1.084-0.075 1.702-0.205 0.526-0.536 1.077-1.083 1.679-1.653-1.685 0.652-3.106 0.98-4.26 0.98-0.817 3e-3 -1.861-0.234-3.13-0.705z"/>
                    <path d="m32.774 44.797c0.73-1.001 1.451-2.896 2.165-5.658 0.714-2.769 1.708-4.158 2.984-4.158 0.269 0 0.504 0.061 0.719 0.157-0.041-0.064-0.078-0.117-0.121-0.189-0.334-0.561-0.828-0.841-1.481-0.841-1.275 0-2.27 1.39-2.983 4.162-0.715 2.762-1.435 4.649-2.165 5.653-0.73 1.003-1.519 1.654-2.37 1.958 0.441 0.229 0.837 0.473 1.208 0.724 0.727-0.345 1.409-0.935 2.044-1.808z"/>
                    <path d="m41.439 31.964c0 0.35-0.283 1.073-0.844 2.176-0.52 1.016-0.93 1.542-1.241 1.619 0.015 0.023 0.035 0.041 0.049 0.065 0.334 0.56 0.585 0.844 0.751 0.844 0.318 0 0.761-0.554 1.322-1.652 0.561-1.103 0.842-1.825 0.842-2.175 0-0.577-0.316-1.132-0.946-1.664-0.089-0.075-0.179-0.132-0.269-0.197 0.216 0.32 0.336 0.648 0.336 0.984z"/>
                    <path d="m33.669 56.131c0 1.271 0.386 2.065 1.157 2.386-0.182-0.393-0.275-0.896-0.275-1.511 0-0.366 0.034-0.928 0.103-1.686 0.069-0.76 0.103-1.308 0.103-1.641 0-1.731-0.346-3.122-1.037-4.169-0.347-0.525-0.798-1.02-1.353-1.479 0.169 0.197 0.335 0.396 0.472 0.603 0.691 1.049 1.037 2.438 1.037 4.17 0 0.334-0.034 0.884-0.103 1.644-0.071 0.756-0.104 1.316-0.104 1.683z"/>
                    <path d="m11.525 43.508c-0.166 0-0.33-0.06-0.495-0.146 0.458 0.669 0.917 1.022 1.376 1.022 0.486 0 1.074-0.351 1.766-1.048 0.69-0.699 1.036-1.179 1.036-1.438 0-0.167-0.19-0.407-0.569-0.726-0.172-0.146-0.306-0.299-0.451-0.45 0.092 0.119 0.139 0.22 0.139 0.301 0 0.258-0.345 0.735-1.037 1.433-0.692 0.701-1.28 1.052-1.765 1.052z"/>
                    <path d="m26.927 47.153c-0.183 0.028-0.463 0.045-0.842 0.045-0.069 0-0.121-0.017-0.184-0.021 0.015 0.596 0.366 0.897 1.064 0.897 0.194 0 0.359-4e-3 0.502-0.014-0.14-0.358-0.312-0.673-0.54-0.907z"/>
                    <path d="m7.746 55.874c0.034 2.354 0.593 3.844 1.666 4.481-0.5-0.809-0.764-2.008-0.786-3.604 0-1.094-0.332-1.651-0.974-1.709 0.057 0.237 0.094 0.504 0.094 0.832z"/>
                    <path d="m41.801 56.156v0.722c-1.822 1.938-3.425 3.354-4.806 4.246-1.382 0.891-2.841 1.337-4.375 1.337-1.212 0-2.257-0.355-3.146-1.049 0.05 0.062 0.087 0.133 0.14 0.192 1.025 1.157 2.32 1.732 3.884 1.732 1.534 0 2.992-0.447 4.375-1.337 1.38-0.894 2.983-2.307 4.805-4.245v1e-3h2e-3v-2.615c-0.298 0.361-0.592 0.7-0.879 1.016z"/>
                    <path d="m25.014 46.263c0-0.466 0.127-0.81 0.374-1.036 0.021-0.124 0.042-0.238 0.064-0.365l0.48-2.8c0.411-2.477 0.854-4.344 1.324-5.598 0.471-1.264 1.133-2.435 1.984-3.522 0.853-1.086 1.279-1.698 1.279-1.834 0-0.184-0.229-0.349-0.694-0.501-0.127-0.042-0.219-0.062-0.326-0.093-0.182 0.296-0.552 0.803-1.139 1.552-0.852 1.085-1.514 2.257-1.984 3.521-0.471 1.259-0.913 3.127-1.325 5.6l-0.479 2.799c-0.914 5.557-1.99 9.466-3.229 11.718-1.236 2.257-2.785 3.946-4.644 5.071-1.859 1.124-3.865 1.687-6.02 1.687-2.049 0-3.858-0.486-5.43-1.457-0.305-0.189-0.571-0.384-0.816-0.58 0.391 0.512 0.953 0.999 1.697 1.459 1.571 0.97 3.38 1.455 5.429 1.455 2.155 0 4.162-0.562 6.02-1.687 1.86-1.123 3.408-2.813 4.646-5.067 1.094-1.989 2.06-5.28 2.9-9.849-0.067-0.133-0.111-0.284-0.111-0.473z"/>
                </g>
                <g fill-rule="nonzero" opacity=".15">
                    <path d="m53.328 35.169c-0.328 2.679-1.636 4.025-3.943 4.025-0.865 0-1.638-0.189-2.336-0.533-0.046 0.072-0.088 0.152-0.135 0.225 0.925 0.786 2.043 1.178 3.348 1.178 2.689 0 4.033-1.812 4.033-5.448-0.32 0.235-0.644 0.411-0.967 0.553z"/>
                    <path d="m49.088 57.7c-0.074-0.227-0.122-0.477-0.122-0.768 0-1.261 0.47-3.364 1.412-6.311l2.278-7.129h-0.274l-0.948 0.197-1.935 6.053c-0.942 2.949-1.413 5.054-1.413 6.312 0 0.502 0.11 0.909 0.331 1.221 0.183 0.256 0.412 0.381 0.671 0.425z"/>
                    <path d="m53.872 56.12v0.78c-3.554 3.734-6.21 5.604-7.973 5.604-0.536 0-1.023-0.166-1.466-0.47 0.646 0.891 1.426 1.349 2.343 1.349 1.763 0 4.418-1.867 7.974-5.603l1e-3 -2.619c-0.313 0.349-0.605 0.668-0.879 0.959z"/>
                </g>
                <g fill-rule="nonzero" opacity=".15">
                    <path d="m72.932 45.639c0 1.455-0.653 3.855-1.958 7.198-0.896 2.296-1.345 3.781-1.345 4.469 0 0.826 0.322 1.259 0.933 1.337-0.027-0.14-0.053-0.281-0.053-0.454 0-0.688 0.447-2.174 1.344-4.471 1.305-3.341 1.958-5.737 1.958-7.197 0-0.878-0.256-1.611-0.771-2.193-0.182-0.207-0.386-0.363-0.602-0.498 0.325 0.512 0.494 1.111 0.494 1.809z"/>
                    <path d="m60.398 49.949c0.535-0.6 1.042-1.146 1.528-1.667 0.411-1.394 0.958-3.015 1.651-4.879l-1.292 0.248c-0.938 2.615-1.567 4.713-1.887 6.298z"/>
                    <path d="m65.149 49.007c0.426-0.378 0.797-0.675 1.117-0.889 0.195-0.117 0.363-0.195 0.515-0.248 0.012-0.084 0.018-0.156 0.018-0.222 0-0.482-0.19-0.729-0.569-0.729-0.213 0-0.495 0.107-0.843 0.319-0.319 0.213-0.691 0.514-1.117 0.891-0.379 0.348-0.805 0.775-1.276 1.274-0.411 0.423-0.851 0.912-1.322 1.455l-1.274 1.48c-0.562 0.685-0.912 1.403-1.049 2.163-0.227 1.292-0.379 2.474-0.455 3.553-0.047 0.805-0.07 1.893-0.07 3.259l-4.236 0.996c0.024 0.346 0.051 0.688 0.082 1.068l5.035-1.182c0-1.367 0.021-2.456 0.067-3.262 0.077-1.077 0.229-2.26 0.457-3.551 0.136-0.758 0.486-1.478 1.048-2.163l1.276-1.482c0.471-0.545 0.911-1.033 1.321-1.456 0.471-0.499 0.896-0.926 1.275-1.274z"/>
                    <path d="m76.139 56.168v0.73c-3.508 3.706-6.516 5.56-9.022 5.56-0.7 0-1.299-0.183-1.812-0.519 0.075 0.109 0.141 0.227 0.229 0.324 0.623 0.715 1.442 1.072 2.46 1.072 2.508 0 5.515-1.853 9.021-5.557v-2.618c-0.301 0.359-0.593 0.693-0.876 1.008z"/>
                </g>
                <g fill-rule="nonzero" opacity=".15">
                    <path d="m87.034 44.349c-1.61 0-3.015 1.087-4.215 3.261-1.199 2.169-1.8 4.383-1.8 6.627 0 1.047 0.216 1.88 0.649 2.495 0.223 0.313 0.483 0.545 0.779 0.698-0.36-0.597-0.549-1.361-0.549-2.315 0-2.247 0.602-4.459 1.8-6.627 1.201-2.173 2.606-3.261 4.215-3.261 0.24 0 0.459 0.054 0.664 0.147-0.062-0.115-0.13-0.229-0.21-0.332-0.357-0.462-0.802-0.693-1.333-0.693z"/>
                    <path d="m93.889 47.854-2.137 11.413c0.379-0.143 0.76-0.328 1.142-0.531l1.873-10.002c0.317-1.703 0.771-3.449 1.362-5.24h-0.523l-0.707 0.319c-0.411 1.371-0.764 2.724-1.01 4.041z"/>
                    <path d="m85.777 58.058c-1.048 1.103-1.982 1.953-2.8 2.544-1.065 0.767-2.135 1.15-3.21 1.15-0.777 0-1.456-0.255-2.06-0.703 0.78 1.041 1.755 1.582 2.937 1.582 1.077 0 2.147-0.381 3.212-1.149 0.707-0.511 1.508-1.229 2.388-2.125l0.482-2.209c-0.303 0.371-0.617 0.692-0.949 0.91z"/>
                    <path d="m98.058 56.155v0.743c-1.927 2.021-4.234 3.508-6.921 4.466-1.261 3.936-2.86 6.962-4.797 9.089-1.937 2.125-3.991 3.188-6.163 3.188-0.923 0-1.704-0.234-2.351-0.688 0.111 0.155 0.222 0.312 0.357 0.45 0.73 0.741 1.686 1.116 2.871 1.116 2.172 0 4.227-1.062 6.163-3.19 1.937-2.122 3.537-5.152 4.797-9.089 2.687-0.957 4.994-2.44 6.922-4.462l1e-3 -2.617c-0.293 0.349-0.586 0.679-0.879 0.994z"/>
                    <path d="m79.106 71.666c-0.183-0.347-0.284-0.741-0.284-1.2 0-2.098 2.049-3.967 6.101-5.613 0.126-0.438 0.252-0.89 0.377-1.369-4.905 1.762-7.356 3.798-7.356 6.104 0 0.688 0.204 1.239 0.614 1.676 0.164 0.17 0.349 0.299 0.548 0.402z"/>
                </g>
                <g fill-rule="nonzero" opacity=".15">
                    <path d="m138.26 36.584c0 2.373-0.707 4.45-2.119 6.235-1.411 1.795-3.037 2.689-4.874 2.689-0.708 0-1.304-0.146-1.788-0.433 0.114 0.19 0.245 0.368 0.407 0.522 0.545 0.523 1.298 0.786 2.256 0.786 1.837 0 3.463-0.896 4.875-2.688 1.412-1.791 2.118-3.868 2.118-6.239 0-2.063-0.673-3.76-2.016-5.09-0.13-0.127-0.268-0.243-0.404-0.36 1.03 1.245 1.545 2.77 1.545 4.578z"/>
                    <path d="m121.39 55.468c1.543-1.779 2.653-3.589 3.273-5.43 0.723-2.147 1.239-4.613 1.548-7.393 0.31-2.767 0.601-4.771 0.874-6.009 0.274-1.246 0.756-2.315 1.446-3.212 0.691-0.897 1.656-1.346 2.901-1.346 0.663 0 1.225 0.173 1.706 0.484-0.049-0.075-0.089-0.16-0.144-0.229-0.594-0.754-1.405-1.129-2.435-1.129-1.245 0-2.211 0.448-2.903 1.346-0.69 0.896-1.171 1.968-1.444 3.212-0.273 1.246-0.565 3.248-0.875 6.009-0.309 2.779-0.825 5.243-1.548 7.392-0.725 2.148-2.077 4.258-4.056 6.32 0.589-0.04 1.14-0.043 1.657-0.015z"/>
                    <path d="m139.74 55.151c-0.29 0.328-0.581 0.633-0.875 0.917v0.829c-3.599 3.662-7.283 5.492-11.047 5.492-1.095 0-2.146-0.142-3.156-0.423-1.012-0.284-2.243-0.758-3.691-1.424-1.451-0.67-2.73-1.156-3.838-1.458-2.051 2.25-3.903 3.371-5.558 3.371-0.346 0-0.651-0.075-0.926-0.213 0.092 0.188 0.21 0.363 0.369 0.521 0.379 0.379 0.857 0.569 1.434 0.569 1.655 0 3.509-1.122 5.559-3.372 1.108 0.305 2.387 0.79 3.837 1.459s2.68 1.142 3.691 1.424c1.009 0.281 2.062 0.425 3.156 0.425 3.765 0 7.448-1.832 11.047-5.492l-2e-3 -2.625z"/>
                </g>
                <g fill-rule="nonzero" opacity=".15">
                    <path d="m155.35 45.14 0.276-0.153c-0.246-0.33-0.528-0.606-0.844-0.833 0.213 0.292 0.406 0.615 0.568 0.986z"/>
                    <path d="m159.28 49.244c-1.033 3.354-1.552 5.654-1.552 6.9 0 1.121 0.345 1.756 1.024 1.914-0.094-0.283-0.145-0.622-0.145-1.036 0-1.241 0.514-3.544 1.551-6.898l2.008-6.677h-1.144l-1.742 5.797z"/>
                    <path d="m152.46 56.103c-1.519 2.172-2.919 3.772-4.202 4.806-1.282 1.034-2.607 1.55-3.974 1.55-0.901 0-1.699-0.311-2.416-0.875 0.913 1.158 2.006 1.757 3.292 1.757 1.367 0 2.692-0.518 3.975-1.552 1.048-0.841 2.178-2.084 3.384-3.687-0.054-0.612-0.085-1.261-0.059-1.999z"/>
                    <path d="m146.54 57.955c-0.263-0.458-0.401-1.015-0.401-1.679 0-2.172 0.679-4.549 2.038-7.131s2.796-3.873 4.318-3.873c0.322 0 0.609 0.062 0.867 0.185-0.066-0.123-0.137-0.241-0.22-0.347-0.38-0.476-0.889-0.718-1.526-0.718-1.517 0-2.958 1.292-4.314 3.873-1.36 2.583-2.039 4.959-2.039 7.131 0 0.821 0.202 1.485 0.603 1.992 0.196 0.253 0.423 0.439 0.674 0.567z"/>
                    <path d="m164.08 56.026v0.872c-2.43 2.311-4.17 3.812-5.217 4.512-1.048 0.701-2.052 1.049-3.009 1.049-0.596 0-1.108-0.133-1.549-0.392 0.565 0.831 1.367 1.271 2.431 1.271 0.953 0 1.955-0.35 3.002-1.048 1.051-0.699 2.789-2.204 5.219-4.512l2e-3 -2.625c-0.311 0.31-0.603 0.601-0.879 0.873z"/>
                </g>
                <g opacity=".15">
                    <path d="m184.08 56.072 2e-3 0.826c-0.775 0.687-1.524 1.17-2.252 1.449-0.729 0.28-1.31 0.423-1.73 0.423-1.096 0-2.18-0.424-3.261-1.277-2.187 3.315-4.69 4.973-7.517 4.973-1.336 0-2.479-0.382-3.432-1.145 0.012 0.014 0.018 0.026 0.025 0.039 1.093 1.322 2.521 1.983 4.279 1.983 2.827 0 5.332-1.657 7.521-4.969 1.08 0.851 2.165 1.273 3.257 1.273 0.428 0 1.005-0.143 1.734-0.424 0.725-0.276 1.478-0.76 2.248-1.439v-2.621c-0.302 0.339-0.591 0.635-0.874 0.909z" fill-rule="nonzero"/>
                    <path d="m170.98 58.951c-0.028-0.046-0.063-0.077-0.092-0.127-0.487-0.849-0.731-2.037-0.731-3.573 0-2.765 0.557-5.178 1.674-7.246 0.969-1.796 2.267-2.811 3.888-3.044 0.262-0.271 0.542-0.538 0.851-0.795-0.229-0.092-0.557-0.137-0.979-0.137-1.979 0-3.521 1.033-4.636 3.1s-1.676 4.48-1.676 7.245c0 1.534 0.244 2.727 0.729 3.574 0.264 0.467 0.593 0.792 0.972 1.003z" fill-rule="nonzero"/>
                    <path d="m180.05 45.422c0 2.842-0.774 6.325-2.323 10.456 0.311 0.285 0.629 0.499 0.952 0.67 1.497-4.038 2.25-7.455 2.25-10.245 0-0.579-0.065-1.058-0.202-1.437-0.117-0.331-0.418-0.613-0.877-0.869 0.132 0.378 0.2 0.854 0.2 1.425z" fill-rule="nonzero"/>
                    <rect x="184.96" y="57.784" width=".002" height=".004"/>
                    <path d="m184.96 57.781h2e-3 -2e-3z" fill-rule="nonzero"/>
                </g>
                <g fill-rule="nonzero" opacity=".15">
                    <path d="m193.7 58.067c-1.047 1.097-1.979 1.946-2.791 2.535-1.063 0.767-2.135 1.15-3.213 1.15-0.771 0-1.44-0.249-2.039-0.689 0.779 1.03 1.75 1.567 2.923 1.567 1.079 0 2.151-0.381 3.214-1.149 0.702-0.509 1.501-1.226 2.379-2.117l0.479-2.201c-0.306 0.37-0.62 0.686-0.952 0.904z"/>
                    <path d="m201.82 47.854-2.137 11.413c0.383-0.145 0.766-0.33 1.151-0.535l1.87-9.998c0.318-1.703 0.77-3.449 1.363-5.24h-0.522l-0.718 0.323c-0.409 1.37-0.763 2.723-1.007 4.037z"/>
                    <path d="m205.99 56.155 2e-3 0.743c-1.928 2.021-4.234 3.508-6.92 4.466-1.262 3.936-2.856 6.962-4.795 9.089-1.936 2.125-3.99 3.188-6.162 3.188-0.92 0-1.7-0.232-2.346-0.68 0.109 0.152 0.217 0.307 0.352 0.442 0.73 0.741 1.688 1.116 2.875 1.116 2.17 0 4.225-1.062 6.16-3.19 1.938-2.122 3.537-5.152 4.798-9.089 2.687-0.957 4.993-2.44 6.924-4.462v-2.621c-0.297 0.35-0.593 0.681-0.888 0.998z"/>
                    <path d="m194.97 44.349c-1.611 0-3.012 1.087-4.213 3.261-1.198 2.169-1.802 4.383-1.802 6.627 0 1.047 0.217 1.88 0.649 2.495 0.221 0.312 0.478 0.542 0.771 0.694-0.356-0.597-0.543-1.359-0.543-2.312 0-2.247 0.601-4.459 1.804-6.627 1.197-2.173 2.604-3.261 4.211-3.261 0.242 0 0.462 0.054 0.667 0.148-0.062-0.116-0.13-0.229-0.21-0.333-0.358-0.461-0.803-0.692-1.334-0.692z"/>
                    <path d="m187.05 71.667c-0.185-0.348-0.284-0.742-0.284-1.201 0-2.098 2.048-3.969 6.104-5.614 0.125-0.438 0.252-0.889 0.377-1.368-4.904 1.762-7.355 3.798-7.355 6.104 0 0.688 0.2 1.239 0.609 1.676 0.165 0.171 0.348 0.299 0.549 0.403z"/>
                </g>
                <g fill-rule="nonzero" opacity=".15">
                    <path d="m225.25 45.648c0 1.371-0.547 3.49-1.629 6.355-1.092 2.872-1.635 4.67-1.635 5.397 0 0.335 0.104 0.632 0.31 0.888 0.182 0.23 0.395 0.342 0.631 0.366-0.032-0.121-0.062-0.243-0.062-0.376 0-0.729 0.545-2.524 1.633-5.396 1.088-2.868 1.634-4.986 1.634-6.354 0-0.913-0.239-1.646-0.72-2.201-0.183-0.209-0.392-0.366-0.611-0.495 0.294 0.495 0.449 1.098 0.449 1.816z"/>
                    <path d="m222.28 30.503c0.272 0.638 0.408 1.435 0.408 2.391 0 1.609-0.492 3.389-1.482 5.335-0.986 1.941-2.533 4.289-4.648 7.052 1.051-0.606 1.913-1.094 2.598-1.468 1.25-1.771 2.236-3.351 2.93-4.714 0.988-1.938 1.48-3.718 1.48-5.327 0-0.958-0.136-1.753-0.408-2.392-0.25-0.585-0.556-0.89-0.91-0.938 9e-3 0.022 0.021 0.037 0.032 0.061z"/>
                    <path d="m229.26 57.78v-2.617c-0.306 0.342-0.597 0.657-0.877 0.959v0.778c-3.599 3.734-6.562 5.604-8.886 5.604-0.762 0-1.426-0.196-1.994-0.581 0.099 0.136 0.195 0.274 0.314 0.397 0.674 0.711 1.526 1.062 2.562 1.062 2.323 0 5.284-1.867 8.884-5.603h-3e-3v1e-3z"/>
                    <path d="m217.28 37.641c1.453-2.806 2.592-4.28 3.412-4.451-0.076-0.597-0.309-0.909-0.714-0.909-0.836 0-2.028 1.495-3.577 4.487-1.548 2.976-2.815 6.571-3.806 10.792 0.567-0.658 1.097-1.294 1.604-1.916 0.864-3.036 1.888-5.708 3.081-8.003z"/>
                    <path d="m219.12 47.505c-0.02-0.581-0.307-0.879-0.877-0.879-0.609 0-1.49 0.416-2.646 1.241-1.15 0.825-2.369 1.953-3.643 3.384-0.531 2.793-0.799 6.146-0.799 10.067l-4.295 1c0.031 0.354 0.053 0.723 0.095 1.062l5.079-1.183c0-3.918 0.267-7.275 0.8-10.067 1.274-1.428 2.489-2.559 3.646-3.382 1.15-0.828 2.034-1.243 2.64-1.243z"/>
                </g>
                <g fill-rule="nonzero" opacity=".15">
                    <path d="m243.56 45.14 0.275-0.153c-0.248-0.332-0.529-0.608-0.848-0.837 0.215 0.293 0.41 0.617 0.573 0.99z"/>
                    <path d="m247.48 49.244c-1.035 3.354-1.552 5.654-1.552 6.9 0 1.12 0.341 1.754 1.021 1.913-0.092-0.283-0.146-0.621-0.146-1.035 0-1.241 0.519-3.544 1.552-6.898l2.01-6.677h-1.141l-1.744 5.797z"/>
                    <path d="m234.76 57.96c-0.266-0.46-0.404-1.02-0.404-1.686 0-2.172 0.68-4.549 2.036-7.131 1.354-2.582 2.796-3.873 4.313-3.873 0.322 0 0.609 0.062 0.865 0.182-0.064-0.122-0.135-0.238-0.219-0.344-0.378-0.476-0.886-0.718-1.525-0.718-1.518 0-2.957 1.292-4.316 3.873-1.357 2.584-2.038 4.959-2.038 7.131 0 0.821 0.203 1.485 0.603 1.992 0.202 0.257 0.429 0.448 0.685 0.574z"/>
                    <path d="m252.28 56.025v0.873c-2.432 2.311-4.17 3.812-5.217 4.512-1.047 0.701-2.053 1.049-3.007 1.049-0.596 0-1.11-0.133-1.551-0.392 0.563 0.831 1.365 1.271 2.429 1.271 0.954 0 1.961-0.35 3.01-1.048 1.045-0.699 2.787-2.204 5.213-4.512v-2.625c-0.309 0.31-0.6 0.6-0.877 0.872z"/>
                    <path d="m240.67 56.103c-1.521 2.172-2.922 3.772-4.205 4.806-1.279 1.034-2.609 1.55-3.977 1.55-0.896 0-1.695-0.309-2.41-0.872 0.912 1.155 2.009 1.754 3.291 1.754 1.367 0 2.693-0.518 3.977-1.552 1.048-0.841 2.177-2.083 3.38-3.686-0.051-0.612-0.08-1.261-0.056-2z"/>
                </g>
                <g fill-rule="nonzero" opacity=".15">
                    <path d="m263.16 56.125v0.775c-3.553 3.734-6.211 5.604-7.973 5.604-0.535 0-1.021-0.166-1.466-0.47 0.65 0.891 1.431 1.349 2.349 1.349 1.76 0 4.418-1.867 7.973-5.603v-2.619c-0.317 0.352-0.609 0.672-0.883 0.964z"/>
                    <path d="m258.38 57.699c-0.074-0.227-0.122-0.476-0.122-0.767 0-1.261 0.471-3.364 1.415-6.311l2.275-7.129h-0.271l-0.953 0.198-1.936 6.052c-0.94 2.949-1.41 5.054-1.41 6.312 0 0.502 0.111 0.909 0.332 1.221 0.183 0.256 0.412 0.38 0.67 0.424z"/>
                    <path d="m262.62 35.169c-0.329 2.679-1.639 4.025-3.947 4.025-0.864 0-1.636-0.188-2.332-0.531-0.047 0.071-0.088 0.15-0.134 0.222 0.92 0.786 2.041 1.178 3.348 1.178 2.69 0 4.031-1.812 4.031-5.448-0.322 0.236-0.644 0.413-0.966 0.554z"/>
                </g>
                <g fill-rule="nonzero" opacity=".15">
                    <path d="m269.84 44.39c0 0.959-0.337 2.324-1.023 4.101 0.447-0.05 0.881-0.168 1.311-0.321 0.395-1.2 0.597-2.168 0.597-2.897 0-0.915-0.339-1.484-1.011-1.71 0.078 0.234 0.126 0.507 0.126 0.827z"/>
                    <path d="m275.38 48.446c-0.88 2.46-1.45 4.134-1.71 5.021-0.258 0.889-0.387 1.673-0.387 2.357 0 0.638 0.15 1.146 0.442 1.527 0.187 0.236 0.414 0.391 0.679 0.479-0.146-0.319-0.244-0.68-0.244-1.127 0-0.684 0.127-1.47 0.386-2.357 0.257-0.888 0.827-2.562 1.71-5.021l2.117-5.831-1.217 0.053-1.776 4.899z"/>
                    <path d="m270.2 51.457c0.306-0.532 0.629-1.077 0.99-1.646-1.125 0.577-2.355 0.979-3.688 1.208-0.93 1.714-2.374 3.553-4.295 5.507v1.251h0.525c2.108-2.096 3.657-4.055 4.645-5.875 0.634-0.11 1.239-0.26 1.823-0.445z"/>
                    <path d="m279.87 55.997v0.903h-2e-3c-3.812 3.734-6.752 5.604-8.816 5.604-0.602 0-1.133-0.183-1.611-0.512 0.051 0.069 0.09 0.146 0.145 0.215 0.64 0.783 1.422 1.175 2.35 1.175 2.062 0 5.001-1.867 8.812-5.603v-2.623c-0.315 0.304-0.604 0.581-0.878 0.841z"/>
                    <path d="m264.82 50.488c0.14 0.228 0.32 0.437 0.545 0.627 0.056-0.08 0.117-0.153 0.172-0.231-0.27-0.121-0.504-0.254-0.717-0.396z"/>
                </g>
                <g fill-rule="nonzero" opacity=".15">
                    <path d="m294.67 46.582c0 3.146-3.344 5.695-10.025 7.653 0.344 1.667 1.008 2.848 1.971 3.575-0.502-0.692-0.867-1.592-1.093-2.697 6.685-1.958 10.023-4.511 10.023-7.652 0-1.187-0.425-2.144-1.275-2.87-0.075-0.066-0.167-0.111-0.248-0.172 0.424 0.609 0.647 1.324 0.647 2.163z"/>
                    <path d="m296.4 56.024v0.874c-1.929 1.897-3.66 3.302-5.193 4.203-1.533 0.905-3.228 1.359-5.077 1.359-1.735 0-3.188-0.473-4.358-1.404 0.084 0.097 0.145 0.207 0.234 0.3 1.271 1.323 2.938 1.983 5.002 1.983 1.854 0 3.544-0.454 5.08-1.355 1.535-0.905 3.266-2.308 5.193-4.204v-2.623c-0.309 0.31-0.598 0.594-0.881 0.867z"/>
                    <path d="m286.7 47.609c0.914-1.526 1.869-2.294 2.873-2.294 0.195 0 0.367 0.033 0.525 0.082-0.24-0.635-0.703-0.959-1.402-0.959-1.004 0-1.961 0.763-2.873 2.292-0.912 1.527-1.365 3.512-1.365 5.957 0.333-0.094 0.631-0.202 0.938-0.311 0.124-1.899 0.548-3.5 1.304-4.767z"/>
                </g>
            </g>
        </g>
        <g transform="matrix(1 0 0 1.0722 .52034 -10.189)" fill="#191919" fill-rule="nonzero">
            <path d="m24.889 32.452c-1.686 0.65-3.107 0.979-4.26 0.979-0.82 0-1.864-0.237-3.132-0.707-1.27-0.469-2.184-0.707-2.746-0.707-1.003 0-1.861 0.392-2.575 1.173-0.713 0.782-1.07 1.729-1.07 2.836 0 1.271 0.577 2.388 1.73 3.357 0.38 0.316 0.569 0.558 0.569 0.723 0 0.26-0.346 0.736-1.037 1.432-0.691 0.697-1.28 1.048-1.764 1.048-0.533 0-1.065-0.449-1.596-1.344-0.533-0.892-0.799-1.806-0.799-2.74 0-2.452 1.003-4.729 3.007-6.824 2.005-2.095 4.177-3.144 6.516-3.144 0.896 0 2.008 0.253 3.337 0.763 1.328 0.511 2.29 0.762 2.882 0.762 0.912 0 1.717-0.372 2.415-1.116 0.243-0.244 0.463-0.364 0.662-0.364 0.196 0 0.527 0.074 0.992 0.228 0.464 0.152 0.694 0.318 0.694 0.5 0 0.137-0.425 0.749-1.277 1.834-0.852 1.086-1.514 2.258-1.984 3.521-0.471 1.259-0.913 3.128-1.325 5.604l-0.479 2.797c-0.914 5.556-1.99 9.466-3.229 11.717-1.236 2.258-2.786 3.947-4.644 5.071s-3.865 1.688-6.02 1.688c-2.049 0-3.859-0.486-5.43-1.458-1.571-0.971-2.355-2.058-2.355-3.261 0-0.593 0.517-1.339 1.549-2.243 1.034-0.904 1.776-1.357 2.233-1.357 0.714 0 1.07 0.577 1.07 1.731 0.047 3.232 1.07 4.853 3.076 4.853 3.114 0 5.172-3.568 6.174-10.706 0.441-3.055 1.09-5.716 1.949-7.985 0.857-2.254 3.147-5.137 6.867-8.661zm15.992 23.506c-1.822 1.938-3.425 3.354-4.806 4.246-1.383 0.892-2.841 1.337-4.375 1.337-1.565 0-2.858-0.576-3.884-1.732-1.025-1.152-1.539-2.619-1.539-4.394 0-0.259 0.102-1.262 0.308-2.998 0.206-1.739 0.309-2.775 0.309-3.109 0-1.441-0.296-2.469-0.888-3.073-0.182 0.027-0.463 0.046-0.842 0.046-0.714 0-1.07-0.312-1.07-0.935 0-0.913 0.47-1.366 1.412-1.366l1.002 0.068c0.957 0 1.769-0.446 2.438-1.348 0.669-0.896 1.305-2.573 1.914-5.037 1.488-6.053 3.729-9.081 6.721-9.081 0.698 0 1.363 0.266 1.992 0.798 0.63 0.532 0.946 1.087 0.946 1.664 0 0.35-0.283 1.074-0.845 2.176-0.562 1.098-1.002 1.651-1.32 1.651-0.168 0-0.417-0.284-0.752-0.843-0.333-0.562-0.828-0.841-1.481-0.841-1.275 0-2.269 1.39-2.983 4.161-0.715 2.764-1.436 4.652-2.165 5.653-0.73 1.005-1.519 1.655-2.37 1.959 1.518 0.789 2.624 1.709 3.315 2.756s1.037 2.437 1.037 4.168c0 0.336-0.034 0.884-0.102 1.644-0.07 0.759-0.103 1.318-0.103 1.686 0 1.701 0.691 2.551 2.073 2.551 1.594 0 3.613-1.471 6.059-4.418l-1e-3 2.611z"/>
            <path d="m52.952 55.98c-3.554 3.735-6.21 5.605-7.973 5.605-0.973 0-1.794-0.499-2.46-1.494-0.669-0.993-1.004-2.243-1.004-3.746 0-3.233 1.094-7.714 3.281-13.439l5.786-1.207h0.275l-2.278 7.128c-0.941 2.948-1.412 5.052-1.412 6.31 0 0.503 0.11 0.91 0.331 1.222 0.221 0.311 0.497 0.467 0.831 0.467 0.592 0 1.188-0.217 1.788-0.646 0.599-0.432 1.544-1.371 2.835-2.813v2.613zm-0.456-23.162c0 3.642-1.344 5.458-4.032 5.458-1.306 0-2.424-0.394-3.348-1.18 0.881-1.332 1.564-2.835 2.05-4.506 1.2 0.743 2.165 1.116 2.895 1.116 0.818-1e-3 1.631-0.297 2.435-0.888z"/>
            <path d="m75.219 55.98c-3.508 3.706-6.516 5.561-9.021 5.561-1.019 0-1.837-0.357-2.46-1.073-0.622-0.711-0.934-1.672-0.934-2.869 0-1.627 0.669-4.111 2.006-7.452 0.714-1.791 1.07-2.929 1.07-3.414 0-0.482-0.19-0.73-0.569-0.73-0.213 0-0.494 0.108-0.843 0.321-0.319 0.212-0.691 0.512-1.117 0.89-0.379 0.347-0.805 0.775-1.275 1.273-0.411 0.425-0.851 0.913-1.323 1.456l-1.274 1.48c-0.562 0.684-0.912 1.404-1.049 2.163-0.227 1.292-0.379 2.474-0.455 3.552-0.047 0.805-0.069 1.895-0.069 3.259l-5.034 1.186c-0.17-2.057-0.252-3.583-0.252-4.583 0-2.444 0.286-4.761 0.855-6.949 0.569-2.186 1.484-4.646 2.744-7.379l5.559-1.07c-1.169 3.144-1.935 5.619-2.3 7.426 2.489-2.779 4.465-4.702 5.928-5.773 1.462-1.067 2.763-1.604 3.899-1.604 0.773 0 1.418 0.289 1.933 0.873 0.516 0.585 0.773 1.316 0.773 2.195 0 1.454-0.653 3.855-1.958 7.197-0.897 2.297-1.345 3.783-1.345 4.469 0 0.914 0.374 1.37 1.118 1.37 1.113 0 2.91-1.466 5.393-4.397v2.622z"/>
            <path d="m97.137 55.98c-1.927 2.021-4.234 3.508-6.921 4.465-1.261 3.937-2.86 6.964-4.797 9.09s-3.99 3.188-6.163 3.188c-1.186 0-2.142-0.375-2.871-1.117-0.731-0.742-1.094-1.725-1.094-2.938 0-1.628 0.726-3.084 2.175-4.374 1.45-1.292 3.914-2.537 7.394-3.733l0.979-4.486c-1.459 1.64-2.718 2.842-3.783 3.609-1.065 0.769-2.135 1.15-3.21 1.15-1.261 0-2.294-0.598-3.099-1.777-0.805-1.182-1.207-2.727-1.207-4.622 0-3.1 1.18-6.001 3.543-8.718 2.36-2.708 4.87-4.067 7.525-4.067 1.471 0 2.778 0.625 3.917 1.868 0.683-0.242 1.572-0.604 2.665-1.093l1.615-0.728h0.524c-0.591 1.79-1.045 3.537-1.363 5.237l-2.137 11.413c2.048-0.774 4.152-2.435 6.307-4.989l1e-3 2.622zm-12.757 6.585c-4.905 1.762-7.356 3.797-7.356 6.104 0 0.687 0.204 1.24 0.614 1.675 0.411 0.433 0.934 0.648 1.573 0.648 1.094 0 2.041-0.691 2.847-2.074 0.803-1.379 1.579-3.499 2.322-6.353zm-1.912-5.831c1.078 0 2.034-0.641 2.871-1.911 0.835-1.275 1.485-2.896 1.949-4.855 0.463-1.958 0.694-3.315 0.694-4.077 0-0.714-0.179-1.301-0.536-1.766-0.356-0.462-0.801-0.692-1.332-0.692-1.61 0-3.015 1.086-4.215 3.261-1.2 2.169-1.8 4.383-1.8 6.627 0 1.048 0.216 1.881 0.649 2.495 0.433 0.607 1.005 0.918 1.72 0.918z"/>
            <path d="m137.95 55.98c-3.599 3.661-7.283 5.491-11.047 5.491-1.094 0-2.146-0.141-3.156-0.422-1.011-0.284-2.241-0.757-3.69-1.424-1.452-0.669-2.73-1.156-3.838-1.459-2.052 2.251-3.903 3.373-5.558 3.373-0.578 0-1.056-0.193-1.435-0.57-0.381-0.378-0.57-0.845-0.57-1.389 0-1.156 0.566-2.168 1.696-3.043 1.131-0.874 2.729-1.477 4.794-1.812 0.866-1.182 1.421-2.341 1.665-3.472 0.241-1.134 0.432-2.997 0.569-5.595 0.257-5.341 1.689-9.509 4.294-12.537 2.605-3.03 5.434-4.544 8.486-4.544 2.094 0 3.814 0.665 5.159 1.991 1.345 1.33 2.016 3.026 2.016 5.094 0 2.374-0.707 4.453-2.118 6.235-1.412 1.796-3.038 2.69-4.875 2.69-0.956 0-1.709-0.26-2.255-0.787-0.548-0.521-0.819-1.239-0.819-2.153 0-0.469 0.09-1.013 0.271-1.631 0.412 0.468 0.928 0.703 1.549 0.703 1.035 0 1.938-0.613 2.712-1.838 0.776-1.226 1.162-2.682 1.162-4.386 0-1.306-0.295-2.333-0.887-3.084-0.592-0.753-1.403-1.128-2.435-1.128-1.244 0-2.211 0.448-2.903 1.344-0.69 0.896-1.17 1.968-1.444 3.212-0.274 1.246-0.564 3.249-0.874 6.013-0.31 2.777-0.826 5.242-1.549 7.392-0.725 2.147-2.075 4.256-4.056 6.319 1.292-0.094 2.411-0.017 3.36 0.229 0.949 0.245 2.31 0.702 4.078 1.379 1.77 0.676 3.292 1.012 4.567 1.012 2.491 0 4.869-1.271 7.131-3.827v2.624z"/>
            <path d="m163.16 55.98c-2.43 2.311-4.17 3.812-5.217 4.512s-2.051 1.049-3.008 1.049c-2.396 0-3.529-2.118-3.395-6.355-1.518 2.172-2.92 3.773-4.203 4.807-1.282 1.033-2.608 1.55-3.975 1.55-1.338 0-2.472-0.628-3.406-1.882-0.933-1.252-1.401-2.789-1.401-4.614 0-2.277 0.627-4.451 1.881-6.514 1.253-2.065 2.858-3.736 4.819-5.016 1.958-1.273 3.689-1.912 5.194-1.912 1.895 0 3.227 0.871 3.988 2.618l4.654-2.574h1.278l-2.011 6.68c-1.031 3.354-1.551 5.652-1.551 6.898 0 1.31 0.465 1.957 1.387 1.957 0.596 0 1.244-0.314 1.959-0.943 0.713-0.631 1.715-1.593 3.004-2.884v2.624h3e-3v-1e-3zm-16.676 1.253c1.521 0 2.953-1.295 4.295-3.886 1.346-2.586 2.018-4.977 2.018-7.16 0-0.854-0.191-1.518-0.57-1.995-0.38-0.477-0.888-0.718-1.525-0.718-1.518 0-2.958 1.292-4.316 3.873-1.361 2.583-2.038 4.959-2.038 7.131 0 0.821 0.201 1.485 0.602 1.991 0.399 0.512 0.912 0.764 1.534 0.764z"/>
            <path d="m183.16 55.98c-0.774 0.688-1.524 1.169-2.253 1.449-0.729 0.281-1.309 0.422-1.729 0.422-1.095 0-2.181-0.423-3.263-1.275-2.187 3.314-4.69 4.972-7.517 4.972-1.762 0-3.187-0.662-4.281-1.983-1.094-1.32-1.637-3.076-1.637-5.263 0-3.461 1.227-6.438 3.687-8.922 2.46-2.479 5.397-3.723 8.812-3.723 1.291 0 2.24 0.142 2.838 0.425 0.602 0.28 0.967 0.608 1.104 0.993 0.136 0.379 0.204 0.856 0.204 1.433 0 2.842-0.775 6.326-2.322 10.455 0.775 0.715 1.586 1.069 2.437 1.069 1.015 0 2.323-0.885 3.917-2.664l3e-3 2.612zm-7.515-12.733c-0.229-0.091-0.559-0.137-0.98-0.137-1.979 0-3.52 1.033-4.637 3.1-1.114 2.067-1.676 4.48-1.676 7.245 0 1.535 0.244 2.727 0.729 3.575 0.487 0.852 1.164 1.275 2.028 1.275 1.078 0 2.248-0.995 3.506-2.981-1.428-1.797-2.139-3.725-2.139-5.785 2e-3 -2.433 1.055-4.53 3.169-6.292z"/>
            <path d="m205.08 55.98c-1.928 2.021-4.234 3.508-6.92 4.465-1.262 3.937-2.856 6.964-4.795 9.09-1.936 2.126-3.991 3.188-6.162 3.188-1.188 0-2.145-0.375-2.876-1.117-0.728-0.742-1.093-1.725-1.093-2.938 0-1.628 0.723-3.084 2.17-4.374 1.449-1.292 3.916-2.537 7.394-3.733l0.978-4.486c-1.455 1.64-2.719 2.842-3.779 3.609-1.064 0.769-2.135 1.15-3.213 1.15-1.262 0-2.293-0.598-3.098-1.777-0.805-1.182-1.207-2.727-1.207-4.622 0-3.1 1.18-6.001 3.539-8.718 2.361-2.708 4.87-4.067 7.528-4.067 1.472 0 2.776 0.625 3.914 1.868 0.687-0.242 1.571-0.604 2.665-1.093l1.617-0.728h0.525c-0.593 1.79-1.05 3.537-1.365 5.237l-2.137 11.413c2.051-0.774 4.15-2.435 6.309-4.989l6e-3 2.622zm-12.753 6.585c-4.905 1.762-7.356 3.797-7.356 6.104 0 0.687 0.2 1.24 0.61 1.675 0.411 0.433 0.935 0.648 1.575 0.648 1.093 0 2.039-0.691 2.845-2.074 0.808-1.379 1.579-3.499 2.326-6.353zm-1.914-5.831c1.077 0 2.032-0.641 2.868-1.911 0.839-1.275 1.486-2.896 1.951-4.855 0.461-1.958 0.692-3.315 0.692-4.077 0-0.714-0.177-1.301-0.534-1.766-0.357-0.462-0.803-0.692-1.334-0.692-1.611 0-3.013 1.086-4.214 3.261-1.198 2.169-1.801 4.383-1.801 6.627 0 1.048 0.217 1.881 0.647 2.495 0.441 0.607 1.009 0.918 1.725 0.918z"/>
            <path d="m227.46 55.98c-3.6 3.735-6.562 5.605-8.886 5.605-1.032 0-1.892-0.354-2.563-1.062-0.673-0.703-1.014-1.596-1.014-2.675 0-1.821 0.697-4.392 2.098-7.699 0.742-1.791 1.116-2.961 1.116-3.508 0-0.621-0.295-0.933-0.886-0.933-0.607 0-1.49 0.415-2.646 1.242-1.152 0.823-2.371 1.952-3.644 3.383-0.531 2.792-0.799 6.146-0.799 10.066l-5.08 1.184c-0.197-1.596-0.291-3.325-0.291-5.194 0-4.523 0.621-8.738 1.866-12.643 1.244-3.897 3.201-8.015 5.873-12.388 1.99-0.806 3.726-1.461 5.203-1.972 1.481-0.51 2.328-0.763 2.541-0.763 0.395 0 0.729 0.318 1.006 0.958 0.272 0.638 0.408 1.435 0.408 2.392 0 1.609-0.492 3.389-1.48 5.334-0.987 1.943-2.535 4.292-4.648 7.055 2.023-1.172 3.365-1.902 4.035-2.21 0.669-0.304 1.355-0.453 2.053-0.453 0.777 0 1.404 0.277 1.883 0.831 0.478 0.554 0.72 1.284 0.72 2.197 0 1.371-0.548 3.489-1.632 6.354-1.09 2.873-1.635 4.67-1.635 5.398 0 0.335 0.104 0.632 0.311 0.888 0.203 0.259 0.441 0.388 0.716 0.388 0.972 0 2.763-1.465 5.375-4.396v2.621zm-15.786-9.339c5.423-6.295 8.132-10.922 8.132-13.915 0-0.914-0.248-1.366-0.75-1.366-0.836 0-2.027 1.495-3.578 4.487-1.547 2.977-2.816 6.572-3.804 10.794z"/>
            <path d="m251.36 55.98c-2.432 2.311-4.17 3.812-5.217 4.512s-2.053 1.049-3.006 1.049c-2.401 0-3.535-2.118-3.396-6.355-1.521 2.172-2.921 3.773-4.206 4.807-1.278 1.033-2.608 1.55-3.976 1.55-1.336 0-2.475-0.628-3.407-1.882-0.935-1.252-1.402-2.789-1.402-4.614 0-2.277 0.627-4.451 1.882-6.514 1.252-2.065 2.858-3.736 4.816-5.016 1.958-1.273 3.688-1.912 5.193-1.912 1.898 0 3.229 0.871 3.99 2.618l4.657-2.574h1.279l-2.013 6.68c-1.035 3.354-1.549 5.652-1.549 6.898 0 1.31 0.461 1.957 1.387 1.957 0.592 0 1.246-0.314 1.959-0.943 0.713-0.631 1.713-1.593 3.006-2.884v2.624h3e-3v-1e-3zm-16.676 1.253c1.52 0 2.951-1.295 4.295-3.886 1.345-2.586 2.018-4.977 2.018-7.16 0-0.854-0.189-1.518-0.57-1.995-0.379-0.477-0.887-0.718-1.525-0.718-1.518 0-2.957 1.292-4.317 3.873-1.358 2.584-2.037 4.959-2.037 7.131 0 0.821 0.202 1.485 0.601 1.991 0.401 0.512 0.912 0.764 1.535 0.764z"/>
            <path d="m262.24 55.98c-3.553 3.735-6.21 5.605-7.975 5.605-0.968 0-1.791-0.499-2.459-1.494-0.666-0.993-1.004-2.243-1.004-3.746 0-3.233 1.094-7.714 3.282-13.439l5.785-1.207h0.274l-2.28 7.128c-0.94 2.948-1.41 5.052-1.41 6.31 0 0.503 0.112 0.91 0.331 1.222 0.222 0.311 0.498 0.467 0.832 0.467 0.592 0 1.188-0.217 1.787-0.646 0.6-0.432 1.546-1.371 2.836-2.813v2.613h1e-3zm-0.452-23.162c0 3.642-1.347 5.458-4.036 5.458-1.309 0-2.425-0.394-3.35-1.18 0.878-1.332 1.562-2.835 2.05-4.506 1.198 0.743 2.163 1.116 2.894 1.116 0.822-1e-3 1.636-0.297 2.442-0.888z"/>
            <path d="m278.95 55.98c-3.812 3.735-6.754 5.605-8.817 5.605-0.923 0-1.708-0.392-2.346-1.176-0.636-0.781-0.957-1.751-0.957-2.906 0-2.142 1.146-5.012 3.44-8.611-1.125 0.577-2.354 0.979-3.688 1.208-0.987 1.823-2.536 3.783-4.647 5.876h-0.522v-2.049c1.181-1.229 2.253-2.554 3.209-3.965-1.31-0.577-1.957-1.435-1.957-2.57 0-1.174 0.396-2.424 1.194-3.75 0.797-1.327 1.896-1.993 3.295-1.993 1.181 0 1.771 0.605 1.771 1.822 0 0.958-0.336 2.324-1.023 4.102 2.521-0.274 4.724-2.205 6.607-5.786l2.073-0.091-2.117 5.831c-0.88 2.46-1.448 4.134-1.709 5.021-0.258 0.889-0.387 1.674-0.387 2.357 0 0.638 0.149 1.146 0.442 1.527 0.297 0.379 0.693 0.57 1.194 0.57 0.548 0 1.072-0.187 1.575-0.558 0.5-0.373 1.623-1.403 3.37-3.09v2.621h-3e-3v3e-3h3e-3v2e-3z"/>
            <path d="m295.48 55.98c-1.929 1.897-3.66 3.302-5.193 4.203-1.534 0.905-3.229 1.36-5.077 1.36-2.067 0-3.733-0.662-5.003-1.983-1.27-1.32-1.898-3.062-1.898-5.221 0-3.217 1.114-6.13 3.348-8.734 2.23-2.605 4.707-3.903 7.426-3.903 1.411 0 2.544 0.363 3.396 1.093 0.852 0.729 1.273 1.685 1.273 2.871 0 3.145-3.344 5.695-10.025 7.653 0.608 2.963 2.2 4.44 4.762 4.44 1.004 0 1.961-0.27 2.869-0.808 0.916-0.543 2.289-1.737 4.125-3.59l-3e-3 2.619zm-11.937-4.212c3.885-1.093 5.833-3.112 5.833-6.061 0-1.457-0.535-2.188-1.596-2.188-1.002 0-1.959 0.764-2.871 2.291-0.911 1.527-1.366 3.513-1.366 5.958z"/>
        </g>
        <g transform="matrix(1 0 0 1.0722 .52034 -10.189)">
            
                <path d="m111.37 28.906c2.19 1.254 2.85 4.645 4.776 6.461 0.567 0.532 1.31 0.947 2.126 1.173 0.656-1.51 1.483-2.854 2.488-4.023 0.781-0.908 1.584-1.664 2.406-2.299-0.198-0.287-0.426-0.562-0.702-0.817 1.411-1.146 2.005-2.691 1.747-4.654-0.128-0.368-0.256-0.734-0.382-1.103-1.671-2.186-5.016-4.004-7.5-1.82-1.948 1.704-2.598 4.894-5.238 6.027 1.262-3.042 5.651-5.559 4.564-10.028-0.662-2.719-2.722-4.749-5.101-4.323-0.419 0.145-0.84 0.29-1.259 0.435-1.273 0.884-1.869 2.103-2.469 3.32-3.214-1.931-8.467 2.909-6.1 6.596 1.972 3.066 7.218 1.808 9.608 4.354-3.438 1.443-6.281-3.136-9.843-1.455-1.674 0.788-3.093 3.701-2.972 5.692 0.136 0.396 0.271 0.791 0.405 1.183 0.841 1.366 2.035 2.009 3.371 2.366-0.091 0.649-0.226 0.994-0.142 1.627 0.715 5.43 8.251 3.53 9.109-0.406 0.354-1.606 0.085-3.116 0.041-4.235-0.059-1.449-0.164-2.534 0.434-4.118 2.666 7.106 0.802 12.726-3.257 16.848-0.84 0.854-2.535 1.938-0.95 2.612 0.185-0.062 0.368-0.123 0.551-0.188 4.807-4.723 7.472-10.817 4.289-19.225z" fill="#44a347" fill-rule="nonzero"/>
            
        </g>
    </g>
</svg>